# xmcd CD database file
# Copyright (C) 1993-1996 Ti Kan
#
# Track frame offsets:
# 150
# 21845
# 46445
# 58877
# 77072
# 91117
# 104117
# 120200
# 131775
# 149657
# 174957
# 192012
# 203875
# 221372
#
# Disc length: 3162 seconds
# Revision: 0
# Processed by: cddbd v1.4b41PL1 Copyright (c) Steve Scherf et al.
# Submitted via: CDSpectrumPro v3.2.327
#
DISCID=c70c580e
DTITLE=Wilbert Harrison - Wilbert Harrison: Greatest R&B Hits
DYEAR=1900
DGENRE=
TTITLE0=Stand by me
TTITLE1=Let's work together
TTITLE2=Kansas City
TTITLE3=CC Rider
TTITLE4=Peepin' and Hidin'
TTITLE5=Louie, Louie
TTITLE6=Stagger Lee
TTITLE7=Tropical Shakedown
TTITLE8=Lil' Liza Jane
TTITLE9=Cheatin' Baby
TTITLE10=What am I livin' for
TTITLE11=Soul Rattler
TTITLE12=Bring it on home to me
TTITLE13=Nobody, like my baby
EXTD=
EXTT0=
EXTT1=
EXTT2=
EXTT3=
EXTT4=
EXTT5=
EXTT6=
EXTT7=
EXTT8=
EXTT9=
EXTT10=
EXTT11=
EXTT12=
EXTT13=
PLAYORDER=
